<svg width="109" height="40" viewBox="0 0 109 40" fill="none" xmlns="http://www.w3.org/2000/svg">
<path d="M2.40004 29.952C2.70404 28.768 3.08804 27.296 3.55204 25.536C4.01604 23.76 4.52004 21.872 5.06404 19.872C5.60804 17.856 6.14404 15.912 6.67204 14.04C7.61604 14.424 8.48004 14.72 9.26404 14.928C10.064 15.12 10.704 15.144 11.184 15C11.664 14.856 11.904 14.464 11.904 13.824C11.904 13.392 11.592 12.976 10.968 12.576C10.36 12.176 9.17604 11.76 7.41604 11.328C7.56004 10.768 7.70404 10.24 7.84804 9.74402C7.99204 9.23201 8.12804 8.75201 8.25604 8.30401C9.36004 8.76801 10.408 9.14402 11.4 9.43202C12.392 9.72002 13.2 9.80801 13.824 9.69601C14.448 9.58401 14.76 9.16801 14.76 8.44802C14.76 7.92002 14.36 7.44001 13.56 7.00801C12.76 6.57601 11.256 6.11201 9.04804 5.61601C9.06404 5.55201 9.07204 5.50401 9.07204 5.47201C9.08804 5.42401 9.10404 5.36801 9.12004 5.30401C9.53604 3.91201 10.296 2.83201 11.4 2.06401C12.52 1.29601 14.048 0.928015 15.984 0.960014C17.968 0.960014 19.52 1.40001 20.64 2.28001C21.76 3.14401 22.464 4.52801 22.752 6.43202C22.784 6.67202 22.816 6.92801 22.848 7.20001C22.896 7.45601 22.936 7.72801 22.968 8.01602C23 8.27201 23.032 8.53601 23.064 8.80801C23.112 9.08001 23.152 9.36001 23.184 9.64801C23.216 9.80801 23.24 9.96801 23.256 10.128C23.288 10.288 23.312 10.448 23.328 10.608C23.36 10.768 23.384 10.936 23.4 11.112C23.448 11.48 23.496 11.856 23.544 12.24C23.592 12.624 23.648 13.016 23.712 13.416C23.744 13.656 23.776 13.904 23.808 14.16C23.856 14.4 23.888 14.656 23.904 14.928C23.936 15.12 23.96 15.32 23.976 15.528C24.008 15.72 24.04 15.92 24.072 16.128C24.104 16.32 24.128 16.52 24.144 16.728C24.336 18.12 24.52 19.536 24.696 20.976C24.888 22.416 25.072 23.832 25.248 25.224C25.424 26.616 25.584 27.936 25.728 29.184C25.888 30.432 26.032 31.568 26.16 32.592C26.272 33.472 26.136 34.208 25.752 34.8C25.368 35.408 24.816 35.712 24.096 35.712C23.472 35.712 22.936 35.472 22.488 34.992C22.056 34.528 21.792 33.84 21.696 32.928C21.392 30.048 21.12 27.056 20.88 23.952C20.64 20.832 20.376 17.68 20.088 14.496C19.992 13.392 19.792 12.624 19.488 12.192C19.184 11.76 18.68 11.544 17.976 11.544C17.336 11.544 16.728 11.736 16.152 12.12C15.592 12.504 14.96 13.408 14.256 14.832C12.896 17.584 11.544 20.4 10.2 23.28C8.87204 26.16 7.56804 28.928 6.28804 31.584C5.96804 32.24 5.61604 32.72 5.23204 33.024C4.84804 33.312 4.41604 33.456 3.93604 33.456C3.24804 33.456 2.75204 33.128 2.44804 32.472C2.16004 31.816 2.14404 30.976 2.40004 29.952ZM7.96804 26.016L8.88004 22.608C10.928 22.528 12.968 22.448 15 22.368C17.032 22.288 18.96 22.224 20.784 22.176C21.552 22.144 22.184 22.264 22.68 22.536C23.176 22.792 23.424 23.216 23.424 23.808C23.424 24.448 23.248 24.912 22.896 25.2C22.56 25.488 22.064 25.648 21.408 25.68C19.168 25.776 16.952 25.848 14.76 25.896C12.568 25.944 10.304 25.984 7.96804 26.016ZM24.144 30.528C23.712 30.528 23.328 30.392 22.992 30.12C22.672 29.848 22.512 29.472 22.512 28.992C22.512 28.512 22.656 28.144 22.944 27.888C23.248 27.632 23.648 27.504 24.144 27.504C24.24 27.504 24.376 27.504 24.552 27.504C24.728 27.504 24.896 27.504 25.056 27.504V30.528C24.912 30.544 24.76 30.552 24.6 30.552C24.44 30.536 24.288 30.528 24.144 30.528ZM5.44804 24.024C4.00804 23.608 2.89604 23.24 2.11204 22.92C1.32804 22.6 0.784035 22.288 0.480035 21.984C0.160035 21.664 3.51369e-05 21.304 3.51369e-05 20.904C3.51369e-05 20.136 0.312035 19.68 0.936035 19.536C1.54404 19.392 2.34404 19.456 3.33604 19.728C4.32804 20 5.36804 20.384 6.45604 20.88L5.44804 24.024ZM6.81604 26.832C6.41604 26.704 6.07204 26.568 5.78404 26.424C5.51204 26.28 5.30404 26.112 5.16004 25.92C5.01604 25.728 4.94404 25.488 4.94404 25.2C4.94404 24.592 5.05604 24.112 5.28004 23.76C5.50404 23.408 5.82404 23.192 6.24004 23.112C6.67204 23.032 7.20004 23.104 7.82404 23.328L6.81604 26.832ZM21.888 20.352L21.552 17.04C22.128 16.976 22.6 16.976 22.968 17.04C23.336 17.104 23.608 17.28 23.784 17.568C23.96 17.84 24.048 18.272 24.048 18.864C24.048 19.44 23.864 19.808 23.496 19.968C23.128 20.128 22.592 20.256 21.888 20.352ZM23.592 25.536L23.424 22.032C24.768 21.984 25.824 21.968 26.592 21.984C27.376 22 27.928 22.144 28.248 22.416C28.584 22.672 28.752 23.16 28.752 23.88C28.752 24.536 28.4 24.976 27.696 25.2C27.008 25.408 25.64 25.52 23.592 25.536ZM36.1527 34.752C35.0007 34.752 34.0727 34.344 33.3687 33.528C32.6647 32.712 32.3127 31.696 32.3127 30.48C32.3127 29.104 32.6967 27.984 33.4647 27.12C34.2327 26.256 35.1927 25.824 36.3447 25.824C37.5767 25.824 38.5047 26.272 39.1287 27.168C39.7687 28.048 40.0887 29.2 40.0887 30.624C40.0887 32.016 39.7447 33.056 39.0567 33.744C38.3687 34.416 37.4007 34.752 36.1527 34.752ZM46.095 29.952C46.335 28.656 46.599 27.256 46.887 25.752C47.175 24.248 47.471 22.704 47.775 21.12C48.095 19.52 48.407 17.952 48.711 16.416C48.759 16.208 48.799 16.008 48.831 15.816C48.863 15.624 48.903 15.432 48.951 15.24C48.999 15.048 49.031 14.856 49.047 14.664C49.111 14.392 49.167 14.12 49.215 13.848C49.263 13.56 49.311 13.28 49.359 13.008C49.471 12.496 49.575 12 49.671 11.52C49.767 11.04 49.855 10.576 49.935 10.128C50.991 10.336 51.935 10.496 52.767 10.608C53.599 10.704 54.255 10.664 54.735 10.488C55.215 10.296 55.455 9.87201 55.455 9.21601C55.455 8.60801 55.087 8.16001 54.351 7.87201C53.631 7.58401 52.367 7.34401 50.559 7.15201C50.655 6.67202 50.751 6.20002 50.847 5.73601C50.943 5.27201 51.047 4.80001 51.159 4.32001C51.463 2.73601 52.223 1.62401 53.439 0.984015C54.671 0.328015 56.255 1.52588e-05 58.191 1.52588e-05C60.191 1.52588e-05 61.831 0.408015 63.111 1.22402C64.391 2.02401 65.151 3.26401 65.391 4.94401C65.423 5.04002 65.439 5.12802 65.439 5.20802C65.455 5.28802 65.471 5.37601 65.487 5.47201C63.327 5.71201 61.799 5.97601 60.903 6.26401C60.023 6.55201 59.583 7.02401 59.583 7.68001C59.583 8.38401 59.879 8.82401 60.471 9.00002C61.063 9.16002 61.839 9.17601 62.799 9.04801C63.775 8.92001 64.831 8.76801 65.967 8.59201C66.031 9.08801 66.119 9.74401 66.231 10.56C66.359 11.376 66.495 12.304 66.639 13.344C66.671 13.568 66.703 13.808 66.735 14.064C66.783 14.304 66.823 14.544 66.855 14.784C66.887 14.976 66.911 15.168 66.927 15.36C66.959 15.552 66.991 15.744 67.023 15.936C67.055 16.128 67.079 16.328 67.095 16.536C67.319 18.072 67.543 19.664 67.767 21.312C67.991 22.944 68.207 24.52 68.415 26.04C68.623 27.56 68.799 28.92 68.943 30.12C69.103 31.304 69.231 32.224 69.327 32.88C69.471 34.048 69.343 34.88 68.943 35.376C68.543 35.888 68.079 36.144 67.551 36.144C67.103 36.144 66.671 35.952 66.255 35.568C65.855 35.184 65.567 34.512 65.391 33.552C64.959 31.168 64.527 28.672 64.095 26.064C63.679 23.44 63.231 20.752 62.751 18C62.447 16.272 61.943 15.008 61.239 14.208C60.535 13.408 59.375 13.008 57.759 13.008C56.063 13.008 54.791 13.424 53.943 14.256C53.095 15.072 52.575 16.272 52.383 17.856C52.127 19.984 51.887 22.104 51.663 24.216C51.455 26.328 51.215 28.464 50.943 30.624C50.831 31.648 50.519 32.36 50.007 32.76C49.511 33.16 48.975 33.36 48.399 33.36C47.711 33.36 47.095 33.096 46.551 32.568C46.023 32.04 45.871 31.168 46.095 29.952ZM50.223 25.68L51.135 22.32C53.343 22.352 55.543 22.392 57.735 22.44C59.927 22.488 62.127 22.528 64.335 22.56C65.007 22.576 65.519 22.728 65.871 23.016C66.223 23.304 66.399 23.728 66.399 24.288C66.399 24.976 66.223 25.448 65.871 25.704C65.519 25.96 64.991 26.08 64.287 26.064C61.919 26 59.567 25.944 57.231 25.896C54.895 25.832 52.559 25.76 50.223 25.68ZM59.295 31.824C58.239 31.776 57.519 31.608 57.135 31.32C56.751 31.032 56.559 30.624 56.559 30.096C56.559 29.568 56.791 29.16 57.255 28.872C57.735 28.584 58.463 28.432 59.439 28.416C60.495 28.384 61.551 28.368 62.607 28.368C63.679 28.368 64.767 28.384 65.871 28.416L66.639 31.92C65.375 31.92 64.127 31.912 62.895 31.896C61.679 31.88 60.479 31.856 59.295 31.824ZM50.655 18.624C48.799 18.384 47.391 18.168 46.431 17.976C45.487 17.784 44.847 17.56 44.511 17.304C44.191 17.048 44.031 16.712 44.031 16.296C44.031 15.592 44.335 15.144 44.943 14.952C45.567 14.76 46.391 14.712 47.415 14.808C48.439 14.888 49.551 15.016 50.751 15.192L50.655 18.624ZM48.279 28.656C46.647 28.592 45.415 28.496 44.583 28.368C43.751 28.24 43.199 28.056 42.927 27.816C42.639 27.56 42.495 27.232 42.495 26.832C42.495 26.256 42.695 25.848 43.095 25.608C43.479 25.368 44.159 25.24 45.135 25.224C46.111 25.192 47.463 25.216 49.191 25.296L48.279 28.656ZM64.431 20.256L63.519 17.088C64.175 16.944 64.719 16.896 65.151 16.944C65.599 16.992 65.935 17.184 66.159 17.52C66.383 17.84 66.495 18.352 66.495 19.056C66.495 19.536 66.311 19.856 65.943 20.016C65.591 20.176 65.087 20.256 64.431 20.256ZM64.575 26.064L64.623 22.608C65.423 22.624 66.039 22.672 66.471 22.752C66.919 22.816 67.223 22.984 67.383 23.256C67.559 23.512 67.647 23.936 67.647 24.528C67.647 25.248 67.415 25.688 66.951 25.848C66.503 26.008 65.711 26.08 64.575 26.064ZM78.3837 35.808C76.9757 35.808 75.8317 35.368 74.9517 34.488C74.0717 33.608 73.6317 32.464 73.6317 31.056C73.6317 29.664 74.0957 28.56 75.0237 27.744C75.9677 26.912 77.1357 26.496 78.5277 26.496C80.0957 26.496 81.3117 26.96 82.1757 27.888C83.0397 28.8 83.4717 29.904 83.4717 31.2C83.4717 32.704 83.0237 33.848 82.1277 34.632C81.2477 35.416 79.9997 35.808 78.3837 35.808ZM77.8557 32.784C78.5277 32.784 79.0317 32.624 79.3677 32.304C79.7037 31.968 79.8717 31.456 79.8717 30.768C79.8717 30.192 79.6797 29.728 79.2957 29.376C78.9277 29.024 78.3837 28.848 77.6637 28.848C77.1837 28.848 76.7757 29.016 76.4397 29.352C76.1037 29.688 75.9357 30.192 75.9357 30.864C75.9357 31.408 76.0957 31.864 76.4157 32.232C76.7357 32.6 77.2157 32.784 77.8557 32.784ZM88.5053 30.768C88.5053 28.288 88.5213 25.936 88.5533 23.712C88.6013 21.488 88.6493 19.168 88.6973 16.752C90.2173 16.752 91.3613 16.696 92.1293 16.584C92.8973 16.472 93.4093 16.288 93.6653 16.032C93.9213 15.776 94.0413 15.44 94.0253 15.024C94.0093 14.64 93.8813 14.336 93.6413 14.112C93.4173 13.888 92.9293 13.744 92.1773 13.68C91.4413 13.6 90.3133 13.6 88.7933 13.68C88.7933 13.296 88.7933 12.824 88.7933 12.264C88.8093 11.688 88.8253 11.2 88.8413 10.8C90.6013 10.72 91.7213 10.552 92.2013 10.296C92.6813 10.024 92.9213 9.61601 92.9213 9.07202C92.9213 8.49602 92.6733 8.07201 92.1773 7.80001C91.6813 7.52801 90.5693 7.40801 88.8413 7.44001C88.8413 7.16801 88.8493 6.84801 88.8653 6.48001C88.8973 6.11201 88.9213 5.68001 88.9373 5.18401C88.9853 3.84001 89.3853 2.92001 90.1373 2.42401C90.8893 1.91201 91.8973 1.60001 93.1613 1.48801C94.1213 1.40801 95.0813 1.32801 96.0413 1.24801C97.0013 1.16801 97.9533 1.10401 98.8973 1.05601C99.8413 0.992014 100.761 0.944015 101.657 0.912015C102.569 0.880013 103.449 0.864013 104.297 0.864013C105.577 0.864013 106.489 1.04801 107.033 1.41601C107.577 1.78401 107.849 2.36801 107.849 3.16801C107.849 3.68001 107.769 4.10401 107.609 4.44001C107.449 4.76001 107.201 5.00001 106.865 5.16001C106.545 5.30401 106.137 5.37601 105.641 5.37601C105.593 5.37601 105.529 5.37601 105.449 5.37601C105.385 5.37601 105.313 5.37601 105.233 5.37601C105.153 5.37601 105.073 5.37601 104.993 5.37601C104.785 5.36001 104.577 5.35201 104.369 5.35201C104.177 5.35201 104.009 5.34401 103.865 5.32802C103.385 5.29601 102.873 5.27201 102.329 5.25601C101.801 5.24001 101.281 5.22401 100.769 5.20802C100.657 5.20802 100.545 5.20802 100.433 5.20802C100.321 5.19201 100.201 5.18401 100.073 5.18401C99.9613 5.18401 99.8493 5.18401 99.7373 5.18401C99.6253 5.16801 99.5133 5.16001 99.4013 5.16001C99.3053 5.16001 99.2093 5.16001 99.1133 5.16001C98.9053 5.14401 98.7053 5.13601 98.5133 5.13601C98.3373 5.13601 98.1693 5.13601 98.0093 5.13601C97.4333 5.13601 97.0493 5.26401 96.8573 5.52001C96.6653 5.77601 96.6013 6.35201 96.6653 7.24801C96.7613 8.56001 96.8813 9.75201 97.0253 10.824C97.1693 11.896 97.3373 13.072 97.5293 14.352C97.6253 14.976 97.7693 15.4 97.9613 15.624C98.1693 15.848 98.5213 15.936 99.0173 15.888C99.7213 15.808 100.441 15.72 101.177 15.624C101.929 15.512 102.569 15.424 103.097 15.36C103.721 15.28 104.185 15.448 104.489 15.864C104.809 16.28 104.969 16.768 104.969 17.328C104.969 17.856 104.817 18.36 104.513 18.84C104.209 19.304 103.753 19.552 103.145 19.584C102.793 19.6 102.425 19.616 102.041 19.632C101.657 19.648 101.257 19.664 100.841 19.68C100.665 19.696 100.489 19.704 100.313 19.704C100.153 19.704 99.9853 19.712 99.8093 19.728C99.6493 19.728 99.4813 19.736 99.3053 19.752C99.1453 19.752 98.9853 19.752 98.8253 19.752C98.5213 19.768 98.2173 19.784 97.9133 19.8C97.6253 19.8 97.3293 19.808 97.0253 19.824C96.9293 19.824 96.8253 19.824 96.7133 19.824C96.6173 19.824 96.5133 19.832 96.4013 19.848C96.3053 19.848 96.2013 19.848 96.0893 19.848C95.9933 19.848 95.8973 19.856 95.8013 19.872C95.7053 19.872 95.6013 19.872 95.4893 19.872C95.3933 19.872 95.2973 19.88 95.2013 19.896C94.9453 19.912 94.6893 19.928 94.4333 19.944C94.1933 19.96 93.9613 19.968 93.7373 19.968C93.3853 19.984 93.0973 20.12 92.8733 20.376C92.6653 20.632 92.6173 21.088 92.7293 21.744C92.9533 22.912 93.2093 24.072 93.4973 25.224C93.7853 26.36 94.1053 27.52 94.4573 28.704C94.6493 29.344 94.8813 29.76 95.1533 29.952C95.4253 30.128 95.8013 30.192 96.2813 30.144C97.8973 29.968 99.5053 29.776 101.105 29.568C102.721 29.36 104.377 29.184 106.073 29.04C106.809 28.976 107.353 29.2 107.705 29.712C108.073 30.224 108.257 30.784 108.257 31.392C108.257 31.936 108.105 32.44 107.801 32.904C107.513 33.368 107.065 33.616 106.457 33.648C103.993 33.744 101.513 33.784 99.0173 33.768C96.5373 33.752 94.0573 33.744 91.5773 33.744C90.4733 33.744 89.6813 33.48 89.2013 32.952C88.7373 32.424 88.5053 31.696 88.5053 30.768ZM95.0333 32.16L98.1533 32.208C98.2173 34.016 98.2093 35.36 98.1293 36.24C98.0653 37.136 97.9053 37.728 97.6493 38.016C97.4093 38.304 97.0653 38.448 96.6173 38.448C96.1533 38.448 95.8013 38.296 95.5613 37.992C95.3373 37.704 95.1853 37.112 95.1053 36.216C95.0413 35.32 95.0173 33.968 95.0333 32.16ZM102.377 37.728C102.313 36.864 102.257 35.984 102.209 35.088C102.161 34.208 102.121 33.328 102.089 32.448C102.073 31.44 102.177 30.752 102.401 30.384C102.641 30 103.049 29.808 103.625 29.808C104.137 29.808 104.513 29.984 104.753 30.336C105.009 30.672 105.161 31.248 105.209 32.064C105.257 32.976 105.297 33.88 105.329 34.776C105.361 35.672 105.385 36.576 105.401 37.488C105.433 38.304 105.313 38.896 105.041 39.264C104.785 39.648 104.425 39.84 103.961 39.84C103.481 39.84 103.113 39.68 102.857 39.36C102.617 39.056 102.457 38.512 102.377 37.728ZM103.433 26.88C102.585 26.88 101.929 26.648 101.465 26.184C101.017 25.72 100.793 25.056 100.793 24.192C100.793 23.328 101.009 22.696 101.441 22.296C101.889 21.896 102.505 21.696 103.289 21.696C104.137 21.696 104.793 21.912 105.257 22.344C105.737 22.776 105.977 23.344 105.977 24.048C105.977 25.008 105.737 25.72 105.257 26.184C104.793 26.648 104.185 26.88 103.433 26.88ZM100.313 2.59201C100.313 2.27201 100.465 1.99201 100.769 1.75201C101.073 1.51201 101.417 1.39201 101.801 1.39201C102.217 1.39201 102.601 1.44001 102.953 1.53601C103.321 1.61601 103.513 1.84002 103.529 2.20802C103.561 2.36802 103.585 2.53601 103.601 2.71201C103.617 2.87201 103.625 3.02401 103.625 3.16801C103.625 3.52001 103.481 3.82401 103.193 4.08001C102.905 4.33601 102.553 4.46402 102.137 4.46402C101.753 4.46402 101.377 4.40001 101.009 4.27201C100.657 4.12801 100.457 3.85601 100.409 3.45601C100.393 3.31201 100.369 3.16801 100.337 3.02401C100.321 2.88001 100.313 2.73601 100.313 2.59201ZM93.7853 4.17601L93.3533 7.24801C92.7773 7.16801 92.3293 7.02401 92.0093 6.81601C91.6893 6.59201 91.5293 6.20801 91.5293 5.66401C91.5293 4.99201 91.7293 4.57602 92.1293 4.41602C92.5453 4.25601 93.0973 4.17601 93.7853 4.17601Z" fill="#246BFD"/>
</svg>
